<!-- Generator: Adobe Illustrator 22.0.1, SVG Export Plug-In  -->
<svg version="1.1"
	 xmlns="http://www.w3.org/2000/svg" xmlns:xlink="http://www.w3.org/1999/xlink" xmlns:a="http://ns.adobe.com/AdobeSVGViewerExtensions/3.0/"
	 x="0px" y="0px" width="1279.4px" height="1170.2px" viewBox="0 0 1279.4 1170.2"
	 style="enable-background:new 0 0 1279.4 1170.2;" xml:space="preserve">
<style type="text/css">
	.st0{fill:#E52421;}
	.st1{fill:#F3E600;}
	.st2{stroke:#000000;stroke-width:16;stroke-linejoin:round;stroke-miterlimit:10;}
	.st3{fill:#FFFFFF;}
	.st4{fill:none;stroke:#FFFFFF;stroke-width:44;stroke-linecap:round;stroke-miterlimit:10;}
	.st5{fill:#FFFFFF;stroke:#FFFFFF;stroke-width:44;stroke-linecap:round;stroke-linejoin:round;stroke-miterlimit:10;}
</style>
<defs>
</defs>
<g>
	<path d="M61,1154.4c11.3-37.1,22.7-74.3,34-111.4c1.6,32.7,3.2,65.4,4.8,98.2c0.6,11.9,3.7,26.9,15.4,29
		c11-79.6,62.4-149.7,127.5-196.7s143.1-73.1,221.5-90.4c-21.8,0.1-43.5,0.3-65.3,0.4c34.8-35.7,92.9-28.5,141.7-18.6
		c73.6,14.8,147.2,29.6,220.9,44.5C824,921.9,888,934.5,951,925c-34.3,2.5-69.2-3-101.1-16.1c100.1-1.6,202.1-24.8,284.5-81.5
		c82.5-56.7,142.9-150.1,145-250.2c-11.3,11.8-24.8,21.4-39.6,28.2c29.4-81.9,32.4-173,8.6-256.7c-20-70.1-67.2-141.1-139-154
		c32.2-7.9,65.7-10.6,98.8-8c-16.6-39.9-77.3-27.9-114.8-49.5c-12.5-7.2-22.3-18.3-34.4-26.3c-15.2-9.9-33.2-14.4-51-17.9
		C889.8,70,768,82.9,648.3,95.9c-34.2,3.7-71.1,8.7-95.5,32.9c5.6-44.7,18.8-88.4,38.7-128.8C372.2,132.6,199.8,341,110.6,581.2
		c-1.3-47.4,6.1-95,21.9-139.7c-23.6-3.3-45.5,15.4-55.1,37.2s-10,46.3-12.6,70c-7.5,69.6-34,135.7-48.2,204.3
		C16.7,753-42.1,1033.4,61,1154.4z"/>
</g>
<g>
	<path class="st0" d="M62.6,1078.6c-47-134-12.7-290.3,69.9-405.8c8.7,5.4,17.4,10.8,26.1,16.2c41.2-82.3,56.3-184.7,97.5-267
		c25.3-50.6,76.1-104.5,111-149c41-52.4,87.9-104.7,140-146c-10,3.7-8.3,50.6-3.1,59.9c51-18.7,102.4-36.8,155.8-46.9
		c79-15,160.2-11.9,240.5-8.7c62.8,2.5,128.5,5.7,182.8,37.4c-9.3,4.5-17.5,11.2-23.8,19.3c46.2,23,94.2,47.6,124.7,89.2
		c43.2,59,41.8,138.4,38.7,211.5c-2.7,62.9-5.6,126.9-26.7,186.2c13.4-7.4,26.8-14.8,40.1-22.2c-33.5,37.1-67.5,73.7-102,109.9
		c-29.6,31.1-60.4,62.5-99.4,80.4c-32.8,15.1-69.4,19.6-105.4,22.6c-50.4,4.2-101.1,5.7-151.6,4.5c3.6,5.7,7.1,11.3,10.7,17
		c-113.2-44-234.5-67-355.9-67.6c-26.1-0.1-53.2,1-76.7,12.3c-23.5,11.4-42.8,35.5-40.6,61.6c10.1,1.8,20.1,3.6,30.2,5.3
		c-90.6,23.8-171.6,82-223,160.3c-10.2-15.4-16.5-33.5-18-51.9c-17,4.8-30.2,21-31.5,38.6C72.8,1045.8,66.5,1089.5,62.6,1078.6z"/>
</g>
<g>
	<path class="st1" d="M67.4,992.8c8.5-86.3,32-171,69.3-249.3c5.6,13.9,25.8,16.4,38.6,8.5c12.8-7.9,19.7-22.3,25.8-36
		c33.2-75.2,59.2-153.6,77.5-233.8c4.3-18.8,8.3-38.1,17.9-54.9c14.2-24.8,39-41.3,61.3-59.3c40.3-32.6,74.2-72.4,107.8-111.9
		c15.8-18.6,31.6-37.2,47.4-55.7c-1.6,7.9-3.1,15.8-4.7,23.7c111.6-47.5,233.8-70.2,355-65.8c73.3,2.6,149.7,16.5,207.1,62.3
		c75.2,60,102.3,162.6,106.8,258.7c4,84.9-7.7,174.3-56.7,243.8c-39.1,55.5-99.9,93.9-165.4,111.7c-65.5,17.8-135.5,15.8-201.6,0.6
		c-4.8-1.1-10.3-2.2-14.5,0.4s-4.6,10.6,0.3,11.6c-122.2-53.5-257.5-76.6-390.5-66.6c-26.8,2-55.6,6.3-75,25
		c-26,25.2-22.6,73.7,6.5,95.2c-63.2,19.5-119.8,60.2-158.3,114c-3.5-50.1,7-101.1,30.1-145.7c-39.7,30.6-68.2,75.4-79.2,124.2"/>
</g>
<circle cx="850.6" cy="502.5" r="322.5"/>
<polygon class="st2" points="609.9,360.1 545,285.2 677.6,172.7 769.7,275.3 "/>
<circle class="st3" cx="782.6" cy="444.5" r="79.5"/>
<circle class="st3" cx="1040.6" cy="444.5" r="79.5"/>
<line class="st4" x1="721.1" y1="268" x2="865.1" y2="343"/>
<line class="st4" x1="1104.1" y1="268" x2="960.1" y2="343"/>
<polygon class="st5" points="1034.1,640 739.1,671 722.1,616 "/>
<g>
	<g>
		<path d="M624,217.6c-43.4-7.3-89-3.3-129.5,14.6c-38.8,17.1-70.2,50.1-93.3,84.9c-56.5,85.2-63.7,189.5-93.7,284.7
			c-3.9,12.4-8.2,24.7-13.1,36.8c-2.1,5.2-3.5,8.4-6.5,15.1c-2.8,6-5.7,11.9-8.8,17.8c-6.1,11.6-13,22.9-20.6,33.6
			c-0.6,0.9-1.3,1.8-1.9,2.7c-0.3,0.4-4,5.3-2.4,3.2c-2,2.6-4.1,5.1-6.2,7.6c-4.3,5-8.7,9.8-13.4,14.5c-6.1,6.1-6.6,17.3,0,23.3
			c6.6,6,16.8,6.5,23.3,0c70.3-70.5,89.1-171.2,111.2-264.2c6.1-25.6,12.7-51.1,21.1-76c2-5.9,4.1-11.8,6.3-17.7
			c0.9-2.4,1.9-4.8,2.8-7.2c0.4-1,0.8-1.9,1.2-2.9c0.7-1.8,0.8-1.9,0.1-0.4c0.4-1,0.8-1.9,1.2-2.9c4.3-9.8,8.9-19.3,14-28.7
			c5.1-9.3,10.7-18.4,16.7-27.2c1.5-2.1,3-4.2,4.5-6.3c0.9-1.2,1.8-2.5,2.8-3.7c0.3-0.4,1.9-2.4,0.3-0.3c3.5-4.4,7.1-8.8,10.9-13
			c7.2-8,14.9-15.4,23.1-22.3c0.8-0.6,1.6-1.3,2.4-1.9c0.2-0.2,4.2-3.2,1.5-1.2c2-1.5,4.1-3,6.2-4.5c4.4-3.1,8.9-5.9,13.6-8.6
			c3.6-2.1,7.3-4.1,11.1-5.8c0.7-0.3,1.4-0.6,2.1-1c2.6-1.2-3.8,1.5-0.8,0.3c1.8-0.7,3.5-1.4,5.3-2.1c8.7-3.2,17.6-5.7,26.6-7.7
			c2.8-0.6,5.6-1.2,8.4-1.6c1-0.2,1.9-0.3,2.9-0.5c0.6-0.1,6.8-0.9,3.2-0.5c5.9-0.7,11.8-1.2,17.7-1.5c7-0.3,14-0.3,20.9,0.1
			c7.6,0.4,13.6,1.1,19.8,2.1c8.5,1.4,18.2-2.2,20.3-11.5C637.3,229.9,633.1,219.1,624,217.6L624,217.6z"/>
	</g>
</g>
<g>
	<g>
		<path d="M327.8,733.7c40.7-3.3,81.3-6.6,122-9.8c5.7-0.5,10.5-4.5,10.5-10.5c0-5.3-4.8-11-10.5-10.5c-40.7,3.3-81.3,6.6-122,9.8
			c-5.7,0.5-10.5,4.5-10.5,10.5C317.3,728.5,322.1,734.2,327.8,733.7L327.8,733.7z"/>
	</g>
</g>
<g>
	<g>
		<path d="M252,684c5.5-21.7,10.6-44.7,3.5-66.6c-4.1-12.8-24.4-7.3-20.2,5.6c5.9,18.4,1.1,37.4-3.5,55.5
			C228.4,691.5,248.7,697.1,252,684L252,684z"/>
	</g>
</g>
<g>
	<g>
		<path d="M203,721.5c-31,7.4-61.1,18.2-89.9,31.9c-5.1,2.4-6.5,9.8-3.8,14.4c3.1,5.2,9.2,6.2,14.4,3.8
			c27.2-12.9,55.7-22.8,84.9-29.8C221.7,738.6,216.1,718.3,203,721.5L203,721.5z"/>
	</g>
</g>
<g>
	<g>
		<path d="M197.3,801.3c-8.3,20.4-16.5,40.9-24.8,61.3c-2.1,5.3,2.3,11.5,7.3,12.9c6,1.6,10.8-2.1,12.9-7.3
			c8.3-20.4,16.5-40.9,24.8-61.3c2.1-5.3-2.3-11.5-7.3-12.9C204.2,792.3,199.4,796,197.3,801.3L197.3,801.3z"/>
	</g>
</g>
<g>
	<g>
		<path d="M267.2,788.9c5.7,9,7.2,20,11.4,29.7c4.5,10.3,10.9,19.7,18.7,27.8c9.3,9.8,24.1-5,14.8-14.8c-6.6-7-12.1-15.2-15.6-24.2
			c-3.7-9.8-5.5-20.1-11.2-29.1C278.1,766.9,259.9,777.4,267.2,788.9L267.2,788.9z"/>
	</g>
</g>
</svg>
